<svg xmlns="http://www.w3.org/2000/svg" width="187.362" height="85.894" viewBox="0 0 187.362 85.894">
  <g id="Group_66" data-name="Group 66" transform="translate(-108.945 -155.188)">
    <path id="Path_285" data-name="Path 285" d="M122.847,365.9v-9.854h4.877v25.017h-4.877V369.883h-9.025v11.181h-4.877V356.046h4.877V365.9Z" transform="translate(0 -140.512)" fill="#161615"/>
    <path id="Path_286" data-name="Path 286" d="M204.186,394.283l3.351-9.19h5.076l-7.5,16.622h-2.39l-7.466-16.622h5.11Z" transform="translate(-60.382 -160.832)" fill="#161615"/>
    <path id="Path_287" data-name="Path 287" d="M278.589,353.176a2.63,2.63,0,0,1,1.957.813,2.754,2.754,0,1,1-3.914,0A2.63,2.63,0,0,1,278.589,353.176Zm2.322,25.88h-4.645V362.765h4.645Z" transform="translate(-116.749 -138.504)" fill="#161615"/>
    <path id="Path_288" data-name="Path 288" d="M328.914,373.8h-4.645V345.665h4.645Z" transform="translate(-150.632 -133.25)" fill="#161615"/>
    <path id="Path_289" data-name="Path 289" d="M371.546,392.746a7.256,7.256,0,0,0,.166,1.531,4.681,4.681,0,0,0,.531,1.4,2.928,2.928,0,0,0,1,1.02,2.815,2.815,0,0,0,1.526.4,2.851,2.851,0,0,0,1.908-.63,4.735,4.735,0,0,0,1.211-1.593l4.281.7a7.3,7.3,0,0,1-2.837,3.788,8.012,8.012,0,0,1-4.562,1.322,8.758,8.758,0,0,1-3.4-.63,7.117,7.117,0,0,1-2.555-1.775,8,8,0,0,1-1.61-2.7,9.986,9.986,0,0,1-.563-3.417,11.684,11.684,0,0,1,.5-3.467,8.169,8.169,0,0,1,1.477-2.8A6.808,6.808,0,0,1,371.065,384a8.217,8.217,0,0,1,3.466-.681,7.932,7.932,0,0,1,3.451.7,6.7,6.7,0,0,1,2.406,1.891,8.055,8.055,0,0,1,1.41,2.821,12.49,12.49,0,0,1,.465,3.451v.564Zm6.337-2.887a5.581,5.581,0,0,0-.332-1.212,3.716,3.716,0,0,0-.63-1.044,3.176,3.176,0,0,0-.93-.746,2.5,2.5,0,0,0-1.194-.283,2.675,2.675,0,0,0-1.244.283,3.008,3.008,0,0,0-.928.729,3.579,3.579,0,0,0-.614,1.046,5.963,5.963,0,0,0-.332,1.228Z" transform="translate(-180.27 -159.593)" fill="#161615"/>
    <path id="Path_290" data-name="Path 290" d="M482.738,381.063h-4.877V356.046H484.5a14.309,14.309,0,0,1,3.567.414A7,7,0,0,1,490.8,357.8a6.078,6.078,0,0,1,1.743,2.407,9.378,9.378,0,0,1,.613,3.6q0,4.016-2.073,5.957a8.348,8.348,0,0,1-5.923,1.94h-2.422Zm0-13.4h1a10.992,10.992,0,0,0,1.925-.15,3.287,3.287,0,0,0,1.393-.564,2.484,2.484,0,0,0,.847-1.177,5.871,5.871,0,0,0,.281-1.991,4.708,4.708,0,0,0-.332-1.925,2.612,2.612,0,0,0-.929-1.128,3.388,3.388,0,0,0-1.443-.514,13.841,13.841,0,0,0-1.874-.116h-.863Z" transform="translate(-258.078 -140.512)" fill="#161615"/>
    <path id="Path_291" data-name="Path 291" d="M557.634,400.145h-4.579v-1.494h-.067a5.068,5.068,0,0,1-1.957,1.494,5.992,5.992,0,0,1-2.456.531,6.642,6.642,0,0,1-3.185-.746,7.4,7.4,0,0,1-2.356-1.974,8.8,8.8,0,0,1-1.46-2.8,10.683,10.683,0,0,1-.5-3.235,10.256,10.256,0,0,1,.5-3.168,8.668,8.668,0,0,1,1.46-2.755,7.362,7.362,0,0,1,2.339-1.941,6.588,6.588,0,0,1,3.136-.731,6.1,6.1,0,0,1,2.471.532,5.781,5.781,0,0,1,2.075,1.526v-1.526h4.579Zm-8-3.584a3.147,3.147,0,0,0,1.61-.415,4.349,4.349,0,0,0,1.228-1.061,4.654,4.654,0,0,0,.78-1.46,5.208,5.208,0,0,0,0-3.286,4.659,4.659,0,0,0-.78-1.46,4.122,4.122,0,0,0-1.228-1.044,3.444,3.444,0,0,0-3.218,0,3.9,3.9,0,0,0-1.211,1.044,4.845,4.845,0,0,0-.763,1.46,5.2,5.2,0,0,0,0,3.286,4.84,4.84,0,0,0,.763,1.46,4.111,4.111,0,0,0,1.211,1.061A3.14,3.14,0,0,0,549.636,396.561Z" transform="translate(-302.302 -159.593)" fill="#161615"/>
    <path id="Path_292" data-name="Path 292" d="M627.44,385.545h.067a4.98,4.98,0,0,1,1.725-1.642,4.653,4.653,0,0,1,2.322-.581,4.221,4.221,0,0,1,.979.116,9.527,9.527,0,0,1,.946.283l-.564,4.313a3.313,3.313,0,0,0-1.925-.6,3.369,3.369,0,0,0-1.908.482A3.069,3.069,0,0,0,628,389.179a5.388,5.388,0,0,0-.465,1.742,18.544,18.544,0,0,0-.1,1.891v7.333h-4.645V383.854h4.645Z" transform="translate(-359.468 -159.593)" fill="#161615"/>
    <path id="Path_293" data-name="Path 293" d="M683.428,363.483h.067l4.877-5.972h6.038l-6.868,7.166,7.4,9.124h-6.1l-5.342-6.935h-.067V373.8h-4.645V345.665h4.645Z" transform="translate(-398.635 -133.25)" fill="#161615"/>
    <path id="Path_294" data-name="Path 294" d="M121.278,171.921l-1.09-1.092-.871-.873-10.372-10.4v45.08l10.376-10.4.867-.869,1.094-1.1a22.3,22.3,0,0,1,0-20.351Z" transform="translate(0 -3.058)" fill="#dbd100"/>
    <path id="Path_295" data-name="Path 295" d="M170.079,182.187v-.177l-.139-22.45a22.506,22.506,0,0,0-18.834,10.4c-.406.632-.769,1.293-1.112,1.965l10.064,10.089v.177L150,192.272c.343.673.707,1.333,1.113,1.966a22.5,22.5,0,0,0,19.107,10.4Z" transform="translate(-28.715 -3.058)" fill="#fc9c00"/>
    <path id="Path_296" data-name="Path 296" d="M154.343,210.883v-.089l-10.064-10.089a22.3,22.3,0,0,0,0,20.351l10.061-10.085Z" transform="translate(-23.001 -31.843)"/>
    <path id="Path_297" data-name="Path 297" d="M489.014,189.2l21.4-29.637H477.861v45.08A16.275,16.275,0,0,1,489.014,189.2Z" transform="translate(-258.078 -3.058)" fill="#fc9c00"/>
    <path id="Path_298" data-name="Path 298" d="M494.139,255.42a16.232,16.232,0,0,0-5.126.836L477.861,271.7h32.557A16.279,16.279,0,0,0,494.139,255.42Z" transform="translate(-258.078 -70.118)" fill="#00979d"/>
    <path id="Path_299" data-name="Path 299" d="M477.861,273.647,489.014,258.2A16.275,16.275,0,0,0,477.861,273.647Z" transform="translate(-258.078 -72.066)"/>
    <path id="Path_300" data-name="Path 300" d="M241.614,159.559l16.279,45.08,16.279-45.08Z" transform="translate(-92.81 -3.058)" fill="#da003e"/>
    <path id="Path_301" data-name="Path 301" d="M379.273,235.763,367.821,204.05a8.093,8.093,0,0,1-9.653,0l-11.452,31.713Z" transform="translate(-166.335 -34.182)" fill="#00979d"/>
    <path id="Path_302" data-name="Path 302" d="M386.77,169.868a8.139,8.139,0,1,0-9.653,0l4.827-13.367Z" transform="translate(-185.285)" fill="#dbd100"/>
    <path id="Path_303" data-name="Path 303" d="M394.486,172.926l-4.827-13.367-4.827,13.367a8.093,8.093,0,0,0,9.653,0Z" transform="translate(-193 -3.058)"/>
    <path id="Path_304" data-name="Path 304" d="M623.074,175a16.277,16.277,0,0,1-11.153-15.443v45.08h32.557L628.2,182.1Z" transform="translate(-351.861 -3.058)" fill="#0090df"/>
    <path id="Path_305" data-name="Path 305" d="M628.2,175.838a16.279,16.279,0,0,0,16.279-16.279H611.921L623.074,175A16.233,16.233,0,0,0,628.2,175.838Z" transform="translate(-351.861 -3.058)" fill="#da003e"/>
    <path id="Path_306" data-name="Path 306" d="M623.074,175l-11.153-15.443A16.277,16.277,0,0,0,623.074,175Z" transform="translate(-351.861 -3.058)"/>
  </g>
</svg>
