<svg id="Palac_logo" xmlns="http://www.w3.org/2000/svg" width="264" height="123.608" viewBox="0 0 264 123.608">
  <path id="Path_144" data-name="Path 144" d="M533.418,715.416c-.055.073-.109.162-.164.236a31.6,31.6,0,0,1-3.9.632c-.92.071-1.832.117-2.752.154A53.48,53.48,0,0,0,533.418,715.416Z" transform="translate(-370.914 -611.348)" fill="none"/>
  <g id="Group_19" data-name="Group 19" transform="translate(0 70.063)">
    <path id="Path_145" data-name="Path 145" d="M370.75,685.958c0-.111-.013-.263-.018-.329-.183-2.321-1.151-4.8-3.319-4.8-1.413,0-3.026,1.258-3.32,4.786-.005.07-.014.225-.019.335-.116,0-.278.007-.343.012-2.363.159-4.888,1.108-4.888,3.293,0,2.208,2.539,3.151,4.914,3.3.061,0,.214.006.33.007-.008.136-.018.307-.018.333.057,2.505,1.114,5.033,3.344,5.033s3.3-2.536,3.344-5.047c0-.027-.01-.194-.02-.327a2.722,2.722,0,0,0,.327.014h0c2.518-.069,5.059-1.12,5.059-3.311,0-2.169-2.528-3.224-5.033-3.308C371.055,685.948,370.88,685.951,370.75,685.958Z" transform="translate(-356.033 -678.049)" fill="none"/>
    <path id="Path_146" data-name="Path 146" d="M369.777,689.825a.615.615,0,1,0-.587-.614A.574.574,0,0,0,369.777,689.825Z" transform="translate(-356.95 -678.804)" fill="none"/>
    <path id="Path_147" data-name="Path 147" d="M366.634,692.413h-.819v-3.665h-.606v-.74h1.425Zm2.789.1a1.325,1.325,0,0,1-1.463-1.3,1.119,1.119,0,0,1,.75-1.1,1.073,1.073,0,0,1-.606-.978,1.322,1.322,0,0,1,2.636,0,1.073,1.073,0,0,1-.605.978,1.12,1.12,0,0,1,.75,1.1A1.326,1.326,0,0,1,369.424,692.512Z" transform="translate(-356.597 -678.737)" fill="none"/>
    <path id="Path_148" data-name="Path 148" d="M369.771,690.74a.688.688,0,1,0,.643.686A.645.645,0,0,0,369.771,690.74Z" transform="translate(-356.945 -679.013)" fill="none"/>
    <path id="Path_149" data-name="Path 149" d="M634.957,690.98v-1.739l-1.124,1.739Z" transform="translate(-380.426 -678.867)" fill="none"/>
    <path id="Path_150" data-name="Path 150" d="M630.02,692.557l-.718-.335,2.007-3.6h-2.027v-.767h3.36Zm5.84-1.712v.711h-.51v.863h-.8v-.863h-2.132v-.4l2.164-3.307h.765v2.992Z" transform="translate(-380.022 -678.732)" fill="none"/>
    <path id="Path_151" data-name="Path 151" d="M365.209,688.758h.605v3.665h.819v-4.4h-1.425Z" transform="translate(-356.597 -678.748)" fill="#0b1036"/>
    <path id="Path_152" data-name="Path 152" d="M370.4,690.115a1.073,1.073,0,0,0,.605-.978,1.322,1.322,0,0,0-2.636,0,1.073,1.073,0,0,0,.606.978,1.119,1.119,0,0,0-.75,1.1,1.473,1.473,0,0,0,2.925,0A1.12,1.12,0,0,0,370.4,690.115Zm-.713-1.584a.615.615,0,1,1-.587.614A.573.573,0,0,1,369.692,688.53Zm0,3.308a.688.688,0,1,1,.643-.687A.646.646,0,0,1,369.692,691.838Z" transform="translate(-356.865 -678.737)" fill="#0b1036"/>
    <path id="Path_153" data-name="Path 153" d="M371.039,685.705l-.1,0-.007-.1c-.177-2.312-1.208-5.011-3.536-5.011s-3.368,2.707-3.539,5.025l-.007.1-.1.006c-3.552.2-5.142,1.908-5.142,3.512,0,2.358,2.758,3.365,5.118,3.51l.106.007,0,.1c.045,2.536,1.18,5.265,3.563,5.265s3.508-2.722,3.56-5.252l0-.107.108,0c2.532-.077,5.258-1.212,5.258-3.524C376.32,686.9,373.582,685.768,371.039,685.705Zm5.064,3.526c0,2.19-2.541,3.241-5.059,3.311h0a2.762,2.762,0,0,1-.327-.014c.01.133.021.3.02.327-.048,2.511-1.1,5.047-3.344,5.047s-3.288-2.528-3.344-5.033c0-.026.01-.2.018-.333-.116,0-.269,0-.33-.007-2.375-.146-4.914-1.089-4.914-3.3,0-2.186,2.525-3.135,4.888-3.294.065,0,.227-.01.343-.012.005-.11.014-.265.019-.335.294-3.528,1.907-4.786,3.32-4.786,2.168,0,3.136,2.479,3.319,4.8.005.066.014.218.018.329.13-.007.305-.01.341-.011C373.575,686.008,376.1,687.063,376.1,689.232Z" transform="translate(-356.011 -678.026)" fill="#dad8d0"/>
    <path id="Path_154" data-name="Path 154" d="M372.941,683.125a5.84,5.84,0,0,0-11.645.018,5.783,5.783,0,0,0-.032,11.554,5.856,5.856,0,0,0,11.708.018,5.8,5.8,0,0,0-.032-11.59Zm0,11.03c-.049,0-.428-.016-.571-.028.014.157.038.534.037.567a5.288,5.288,0,0,1-10.571.018c0-.04.02-.416.034-.567-.083,0-.459,0-.568-.008a5.22,5.22,0,0,1-.032-10.426c.119-.008.5-.017.567-.014,0-.046.018-.418.03-.561a5.273,5.273,0,0,1,10.508.018c.011.136.027.508.026.561.132-.01.511-.023.571-.022a5.232,5.232,0,0,1-.032,10.463Z" transform="translate(-355.759 -677.75)" fill="#dad8d0"/>
    <path id="Path_155" data-name="Path 155" d="M635.5,685.7l-.008-.1c-.176-2.312-1.208-5.011-3.536-5.011s-3.368,2.707-3.539,5.025l-.006.1-.1.006c-3.551.2-5.141,1.908-5.141,3.512,0,2.358,2.757,3.365,5.118,3.51l.1.007,0,.1c.046,2.536,1.18,5.265,3.563,5.265s3.508-2.722,3.56-5.252l0-.107.109,0c2.532-.077,5.257-1.212,5.257-3.524,0-2.333-2.738-3.463-5.282-3.526Zm5.168,3.529c0,2.19-2.541,3.241-5.06,3.311h0a2.789,2.789,0,0,1-.326-.014c.009.133.02.3.019.327-.048,2.511-1.1,5.047-3.344,5.047s-3.287-2.528-3.345-5.033c0-.029.009-.2.018-.333-.115,0-.269,0-.33-.007-2.375-.146-4.914-1.089-4.914-3.3,0-2.186,2.525-3.135,4.888-3.294.065,0,.227-.01.343-.012.005-.11.015-.265.02-.335.292-3.528,1.905-4.786,3.319-4.786,2.168,0,3.137,2.479,3.32,4.8.005.066.013.218.017.329.13-.007.3-.01.341-.011C638.142,686.008,640.671,687.063,640.671,689.232Z" transform="translate(-379.48 -678.026)" fill="#dad8d0"/>
    <path id="Path_156" data-name="Path 156" d="M637.508,683.125A9.068,9.068,0,1,0,625.831,694.7a9.165,9.165,0,1,0,11.676-11.572Zm0,11.03c-.049,0-.428-.016-.571-.028.015.157.038.534.037.567a5.288,5.288,0,0,1-10.571.018c0-.04.021-.416.034-.567-.082,0-.458,0-.568-.008a5.22,5.22,0,0,1-.032-10.426c.12-.008.5-.017.568-.014,0-.046.018-.418.03-.561a5.273,5.273,0,0,1,10.508.018c.011.136.027.508.025.561.133-.01.511-.023.571-.022a5.232,5.232,0,0,1-.032,10.463Z" transform="translate(-379.228 -677.75)" fill="#dad8d0"/>
    <path id="Path_157" data-name="Path 157" d="M629.283,687.853v.767h2.026l-2.007,3.6.719.335,2.621-4.7Z" transform="translate(-380.022 -678.732)" fill="#0b1036"/>
    <path id="Path_158" data-name="Path 158" d="M635.656,687.853h-.765l-2.164,3.307v.4h2.132v.863h.8v-.863h.51v-.711h-.51Zm-.8,2.992h-1.125l1.125-1.739Z" transform="translate(-380.328 -678.732)" fill="#0b1036"/>
  </g>
  <g id="Group_20" data-name="Group 20" transform="translate(82.709 40.61)">
    <path id="Path_165" data-name="Path 165" d="M453.344,653.682c2.94,0,5.178-1.668,5.178-4.359,0-2.156-1.755-3.941-4.607-3.941h-7.4v.139h1.646V661.01h-1.646v.139h6.6v-.139h-1.952v-7.327Zm-2.172-8.161h2.743c1.009,0,1.381.348,1.381.627v6.7c0,.3-.745.7-1.952.7h-2.172Z" transform="translate(-446.519 -645.151)" fill="#0b1036"/>
    <path id="Path_166" data-name="Path 166" d="M459.867,654.623c0,.487.066.556.46.556h1.822v-2.666a5.3,5.3,0,0,1,1.536-.186c.637,0,.812.047.812.58v3.571c-1.032.208-2.129.463-2.963.7-1.339.371-2.589,1.159-2.589,2.69,0,1.414,1.032,2.2,2.568,2.224a7.762,7.762,0,0,0,2.984-.7v.418h3.664v-.139h-1.14v-7.165c0-1.529-1.362-2.318-3.336-2.318C461.754,652.189,459.867,652.953,459.867,654.623Zm4.629,6.607a7.255,7.255,0,0,1-2.523.65c-.154,0-.2-.047-.2-.279V657.73c0-.348.043-.463.241-.534.637-.161,1.514-.371,2.48-.58Z" transform="translate(-447.621 -645.813)" fill="#0b1036"/>
    <path id="Path_167" data-name="Path 167" d="M471.043,660.984h-1.229v.139h4.959v-.139h-1.207v-8.6l1.361-.7v-.533l-1.361.7v-6.723l-1.733.232h-2.019v.139h1.229v7.674l-1.382.719v.533l1.382-.719Z" transform="translate(-448.572 -645.126)" fill="#0b1036"/>
    <path id="Path_168" data-name="Path 168" d="M479.115,662.087a7.763,7.763,0,0,0,2.985-.7v.418h3.664v-.139h-1.141v-7.165c0-1.529-1.361-2.318-3.335-2.318-1.931,0-3.818.764-3.818,2.434,0,.487.066.556.46.556h1.822v-2.666a5.31,5.31,0,0,1,1.536-.186c.636,0,.812.047.812.58v3.571c-1.032.208-2.129.463-2.963.7-1.339.371-2.589,1.159-2.589,2.69C476.548,661.277,477.58,662.065,479.115,662.087Zm.263-4.358c0-.348.044-.463.241-.534.636-.161,1.514-.371,2.48-.58v4.613a7.261,7.261,0,0,1-2.523.65c-.154,0-.2-.047-.2-.279Z" transform="translate(-449.183 -645.813)" fill="#0b1036"/>
    <path id="Path_169" data-name="Path 169" d="M495.471,655.176c.373,0,.459-.069.459-.487,0-1.322-1.316-2.528-3.445-2.528a4.7,4.7,0,0,0-4.718,5.031,4.76,4.76,0,0,0,4.477,5.054,3.739,3.739,0,0,0,3.642-3.152l-.132-.047a3.638,3.638,0,0,1-3.51,3.061c-.878,0-1.646-.418-1.646-.858v-8.115c0-.441.745-.834,1.886-.834a4.365,4.365,0,0,1,1.164.162v2.713Z" transform="translate(-450.178 -645.81)" fill="#0b1036"/>
    <path id="Path_170" data-name="Path 170" d="M514.148,657.068c0-2.272-1.536-3.571-3.972-3.989v-.116a3.7,3.7,0,0,0,3.313-3.732c0-2.25-1.8-3.849-4.257-3.849H501.9v.139h1.646V661.01H501.9v.139h6.912C512.414,661.149,514.148,659.548,514.148,657.068Zm-7.592-11.546h2.677c.812,0,1.295.3,1.295.58v6.306c0,.255-.813.556-1.449.556h-2.522Zm4.366,14.861c0,.325-.724.627-2.106.627h-2.26V653.1h2.522c.944,0,1.844.393,1.844.672Z" transform="translate(-451.432 -645.151)" fill="#0b1036"/>
    <path id="Path_171" data-name="Path 171" d="M519.189,652.471h-2.04v.14h1.227v9.065h-1.227v.139H522.5v-.139h-1.6v-8.115a5.193,5.193,0,0,1,2.15-1.043v2.619h1.822c.417,0,.46-.208.46-.9a1.835,1.835,0,0,0-1.908-1.9,4.145,4.145,0,0,0-2.523,1.02v-1.113Z" transform="translate(-452.784 -645.818)" fill="#0b1036"/>
    <path id="Path_172" data-name="Path 172" d="M535.924,661.81v-.139h-1.141v-7.165c0-1.529-1.361-2.318-3.335-2.318-1.932,0-3.818.764-3.818,2.434,0,.487.066.556.46.556h1.822v-2.666a5.309,5.309,0,0,1,1.536-.186c.636,0,.811.047.811.58v3.571c-1.031.208-2.129.463-2.963.7-1.339.371-2.589,1.159-2.589,2.69,0,1.414,1.032,2.2,2.568,2.224a7.758,7.758,0,0,0,2.984-.7v.418Zm-6.188.07c-.154,0-.2-.047-.2-.279V657.73c0-.348.044-.463.241-.534.637-.161,1.515-.371,2.48-.58v4.613A7.256,7.256,0,0,1,529.736,661.88Z" transform="translate(-453.632 -645.813)" fill="#0b1036"/>
    <path id="Path_173" data-name="Path 173" d="M542.4,662.247a3.738,3.738,0,0,0,3.642-3.152l-.131-.047a3.638,3.638,0,0,1-3.511,3.061c-.878,0-1.645-.418-1.645-.858v-8.115c0-.441.745-.834,1.886-.834a4.36,4.36,0,0,1,1.163.162v2.713h1.822c.373,0,.461-.069.461-.487,0-1.322-1.317-2.528-3.446-2.528a4.7,4.7,0,0,0-4.718,5.031A4.76,4.76,0,0,0,542.4,662.247Z" transform="translate(-454.628 -645.81)" fill="#0b1036"/>
    <path id="Path_174" data-name="Path 174" d="M548.139,661.676v.139h5.068v-.139h-1.316v-9.436l-1.734.232h-2.018v.139h1.229v9.065Z" transform="translate(-455.533 -645.817)" fill="#0b1036"/>
    <path id="Path_175" data-name="Path 175" d="M550.6,646.744a1.462,1.462,0,0,0-1.471,1.46,1.477,1.477,0,0,0,1.471,1.462,1.458,1.458,0,0,0,1.447-1.462A1.443,1.443,0,0,0,550.6,646.744Z" transform="translate(-455.621 -645.283)" fill="#0b1036"/>
  </g>
  <path id="Path_176" data-name="Path 176" d="M469.293,697.3l-.909,2.942-2.339,2.228h-.724v.209h6.687v-.209h-1.087l-2.306-2.193.925-3Z" transform="translate(-365.478 -609.586)" fill="#0b1036"/>
  <g id="Group_21" data-name="Group 21" transform="translate(185.447 102.33)">
    <path id="Path_177" data-name="Path 177" d="M561.581,713.566h-.707l-1.056,1.275v-1.275h-.561v3.014h.561V715.3l.064-.068,1.022,1.352h.742l-1.281-1.622Z" transform="translate(-559.257 -713.498)" fill="#0b1036"/>
    <path id="Path_178" data-name="Path 178" d="M564.338,715.459a.68.68,0,0,1-.138.447.605.605,0,0,1-.914,0,.675.675,0,0,1-.138-.447v-1.893h-.561v1.844a1.318,1.318,0,0,0,.216.8,1.234,1.234,0,0,0,1.879,0,1.311,1.311,0,0,0,.216-.8v-1.844h-.56Z" transform="translate(-559.553 -713.498)" fill="#0b1036"/>
    <path id="Path_179" data-name="Path 179" d="M568.454,715.577l-1.75-2.011h-.388v3.014h.561v-2.015l1.75,2.015h.388v-3.014h-.56Z" transform="translate(-559.884 -713.498)" fill="#0b1036"/>
    <rect id="Rectangle_2" data-name="Rectangle 2" width="0.561" height="3.014" transform="translate(10.217 0.067)" fill="#0b1036"/>
    <path id="Path_180" data-name="Path 180" d="M572.585,713.889a1.614,1.614,0,0,0-.46,1.179,1.538,1.538,0,0,0,.46,1.152,1.386,1.386,0,0,0,1.053.421,1.441,1.441,0,0,0,.712-.177v-.686a.856.856,0,0,1-.672.329.975.975,0,0,1-.975-1.031.989.989,0,0,1,.953-1.053.909.909,0,0,1,.694.34v-.686a1.389,1.389,0,0,0-.707-.186A1.433,1.433,0,0,0,572.585,713.889Z" transform="translate(-560.399 -713.491)" fill="#0b1036"/>
    <path id="Path_181" data-name="Path 181" d="M577.931,713.566h-.707l-1.056,1.275v-1.275h-.561v3.014h.561V715.3l.064-.068,1.022,1.352H578l-1.281-1.622Z" transform="translate(-560.708 -713.498)" fill="#0b1036"/>
    <rect id="Rectangle_3" data-name="Rectangle 3" width="0.561" height="3.014" transform="translate(18.072 0.067)" fill="#0b1036"/>
    <path id="Path_182" data-name="Path 182" d="M580.9,716.58h1.595v-.506h-1.034v-.823h.991v-.506h-.991v-.674h1.034v-.506H580.9Z" transform="translate(-561.177 -713.498)" fill="#0b1036"/>
    <path id="Path_183" data-name="Path 183" d="M585.158,715.466h.741a.808.808,0,0,1-.271.461.935.935,0,0,1-.565.18.869.869,0,0,1-.638-.257,1.049,1.049,0,0,1-.284-.764,1.151,1.151,0,0,1,.289-.8.949.949,0,0,1,.664-.267.9.9,0,0,1,.4.1.8.8,0,0,1,.336.357l.487-.275a1.39,1.39,0,0,0-.538-.552,1.346,1.346,0,0,0-.664-.158,1.5,1.5,0,0,0-1.134.46,1.573,1.573,0,0,0-.423,1.12,1.651,1.651,0,0,0,.427,1.162,1.524,1.524,0,0,0,2.064.009,1.872,1.872,0,0,0,.423-1.248v-.036h-1.32Z" transform="translate(-561.414 -713.491)" fill="#0b1036"/>
    <path id="Path_184" data-name="Path 184" d="M589.186,713.491a1.575,1.575,0,1,0,1.535,1.577A1.494,1.494,0,0,0,589.186,713.491Zm0,2.616a1.046,1.046,0,1,1,.957-1.039A.96.96,0,0,1,589.186,716.107Z" transform="translate(-561.776 -713.491)" fill="#0b1036"/>
  </g>
  <g id="Group_22" data-name="Group 22" transform="translate(48.701 102.33)">
    <path id="Path_185" data-name="Path 185" d="M412.115,715.615l-.664-2.078h-.31l-.7,2.078-.643-2.051H409.2l1,3.013h.422l.659-1.911.63,1.911h.422l1.065-3.013H412.8Z" transform="translate(-409.201 -713.496)" fill="#0b1036"/>
    <path id="Path_186" data-name="Path 186" d="M415.175,715.039l.44-.294v-.451l-.44.294v-1.021h-.561v1.306l-.371.249v.451l.371-.249v1.256h1.448v-.506h-.888Z" transform="translate(-409.648 -713.498)" fill="#0b1036"/>
    <path id="Path_187" data-name="Path 187" d="M418.126,713.567l-1.238,3.014h.608l.255-.633h1.159l.254.633h.6l-1.2-3.014Zm-.2,1.9.409-1.084.409,1.084Z" transform="translate(-409.883 -713.499)" fill="#0b1036"/>
    <path id="Path_188" data-name="Path 188" d="M421.641,713.567h-.751v3.014h.742a1.589,1.589,0,0,0,1.052-.29,1.459,1.459,0,0,0,.578-1.215,1.518,1.518,0,0,0-.552-1.215A1.61,1.61,0,0,0,421.641,713.567Zm.685,2.308a1.162,1.162,0,0,1-.7.2h-.172v-2h.172a1.127,1.127,0,0,1,.706.2,1.024,1.024,0,0,1,.354.8A1,1,0,0,1,422.326,715.876Z" transform="translate(-410.238 -713.499)" fill="#0b1036"/>
    <path id="Path_189" data-name="Path 189" d="M425.2,714.615l-.616-1.048h-.664l.987,1.635v1.378h.56V715.2l1.013-1.635h-.664Z" transform="translate(-410.506 -713.498)" fill="#0b1036"/>
    <path id="Path_190" data-name="Path 190" d="M428.37,714.716a.935.935,0,0,1-.344-.172.257.257,0,0,1-.09-.2.35.35,0,0,1,.4-.352.552.552,0,0,1,.469.257l.293-.4a1.078,1.078,0,0,0-.815-.353.856.856,0,0,0-.923.886.717.717,0,0,0,.229.561,1.368,1.368,0,0,0,.478.262,1.27,1.27,0,0,1,.445.221.364.364,0,0,1,.112.272.411.411,0,0,1-.445.415.672.672,0,0,1-.6-.4l-.366.366a1.172,1.172,0,0,0,.992.57.946.946,0,0,0,1-.989.842.842,0,0,0-.245-.633A1.648,1.648,0,0,0,428.37,714.716Z" transform="translate(-410.798 -713.491)" fill="#0b1036"/>
    <path id="Path_191" data-name="Path 191" d="M430.929,715.039l.44-.294v-.451l-.44.294v-1.021h-.561v1.306l-.371.249v.451l.371-.249v1.256h1.448v-.506h-.888Z" transform="translate(-411.046 -713.498)" fill="#0b1036"/>
    <path id="Path_192" data-name="Path 192" d="M433.879,713.567l-1.238,3.014h.608l.255-.633h1.159l.254.633h.6l-1.2-3.014Zm-.2,1.9.41-1.084.409,1.084Z" transform="translate(-411.28 -713.499)" fill="#0b1036"/>
    <path id="Path_193" data-name="Path 193" d="M439.234,716.577l1.065-3.013H439.7l-.69,2.051-.664-2.078h-.31l-.7,2.078-.643-2.051H436.1l1,3.013h.422l.659-1.911.63,1.911Z" transform="translate(-411.587 -713.496)" fill="#0b1036"/>
    <path id="Path_194" data-name="Path 194" d="M441,716.581h.608l.254-.633h1.159l.254.633h.6l-1.2-3.014h-.439Zm1.858-1.112h-.819l.409-1.084Z" transform="translate(-412.022 -713.499)" fill="#0b1036"/>
  </g>
  <path id="Path_198" data-name="Path 198" d="M498.185,690.886a32.686,32.686,0,0,1-6.233,8.757l-1.221-1.147V678.9Z" transform="translate(-367.732 -607.798)" fill="none"/>
  <path id="Path_199" data-name="Path 199" d="M400.079,677.043H389.241v.209h2.471v23.253h-2.471v.209h10.838c6.193,0,9.883-5.848,9.883-11.836S406.338,677.043,400.079,677.043Zm4.646,21.025c0,1.079-1.944,2.437-4.646,2.437h-3.854V677.253h3.854c2.7,0,4.646,1.357,4.646,2.437Z" transform="translate(-358.729 -607.618)" fill="#0b1036"/>
  <path id="Path_200" data-name="Path 200" d="M425.074,701.3c6.16,0,10.246-6.2,10.246-12.5s-4.085-12.5-10.246-12.5-10.244,6.2-10.244,12.5S418.914,701.3,425.074,701.3ZM420,679.339c0-.94,1.878-2.819,5.072-2.819s5.074,1.88,5.074,2.819v19.007c0,.87-1.878,2.751-5.074,2.751S420,699.216,420,698.346Z" transform="translate(-360.999 -607.547)" fill="#0b1036"/>
  <path id="Path_201" data-name="Path 201" d="M444.791,700.505h-.658l-2.339-2.471V679.026h.165l7.114,21.688h.263l6.424-21.688h.165v21.479h-2.536v.209h9.52v-.209h-2.471V677.253h2.471v-.209H456.09l-4.777,16.083h-.131l-4.711-15.317c-.231-.732-.3-.766-.856-.766h-6.787v.209h1.944c.4,0,.494.034.56.522l.2.835v19.425l-2.075,2.471h-.627v.209h5.963Z" transform="translate(-363.128 -607.618)" fill="#0b1036"/>
  <g id="Group_23" data-name="Group 23" transform="translate(127.112 62.454)">
    <path id="Path_202" data-name="Path 202" d="M554.484,670.331a1.977,1.977,0,0,0-1-.858,4.038,4.038,0,0,0-3.581.876,52.622,52.622,0,0,0-6.352,5.949h-4.465v.208H540.4l1.248,1.851c-.957,1.056-1.914,2.112-2.88,3.151-.264.289-.538.578-.811.876-.164.172-.328.352-.5.533-1.057,1.138-2.178,2.356-3.344,3.6-.164.181-.337.361-.5.542V676.507h2.57V676.3h-9.55v.208h2.47v15.429c-.392.415-.775.84-1.166,1.255-3.682,3.99-7.363,7.954-10.389,11.177a41.28,41.28,0,0,1-9.614,7.511c-2.379-.027-4.757-.036-7.154.036a10.924,10.924,0,0,0-4.766,1.147,1.847,1.847,0,0,0-.711.713c-.283.966.483,1.381,1.431,1.553a11.1,11.1,0,0,0,2.324.081,23.921,23.921,0,0,0,9.614-2.961c5.222-.063,10.261-.154,15.146-.488a35.62,35.62,0,0,0,6.817-1.02c-.055.072-.109.162-.164.235-.009.018-.018.027-.018.036-3.846,5.76-9.259,13.714-13.241,19.266l4.146-.84c.027-.054.055-.1.082-.144q5.317-9.534,10.762-18.941c.255-.072.492-.135.738-.208a34.684,34.684,0,0,0,15.428-9.2l-.337-.3a35.705,35.705,0,0,1-15.018,9.371c-.255.081-.5.172-.756.253.474-.822.939-1.652,1.412-2.465,1.759-2.988,3.837-6.581,5.951-10.2.064-.1.118-.208.182-.307.884-1.508,1.777-3.024,2.652-4.487l-.009-.018.137-.217h.009c.055-.1.118-.208.182-.307,1.258-2.1,2.47-4.108,3.581-5.859.328-.524.738-1.137,1.212-1.851.756-1.156,1.713-2.6,2.862-4.442l.009-.009c.046-.081.091-.163.146-.244.683-1.11,1.431-2.356,2.251-3.765v-.009c.055-.081.1-.153.146-.235.018-.027.027-.063.046-.09C553.891,674.313,555.413,672.308,554.484,670.331ZM506.3,712.646a24.908,24.908,0,0,1-4.265,1.435,14.816,14.816,0,0,1-4.957.415,4.445,4.445,0,0,1-.9-.244.3.3,0,0,1-.1-.1c.009-.108.191-.271.4-.4a10.613,10.613,0,0,1,4.347-1.047c1.978-.117,3.919-.18,5.85-.226C506.55,712.537,506.431,712.592,506.3,712.646Zm45.428-37.232c-.146.289-.3.587-.456.885h-3.162v.208h2.47v1.137c-1.513,2.925-3.035,5.859-4.62,8.748-1.221,2.1-2.46,4.189-3.709,6.275l-4.292-7.268-.271-.447q-1.691,1.742-3.335,3.511h0l5.193,8.61q-4.333,6.988-8.885,13.822a32.505,32.505,0,0,1-4.638.776c-4.192.316-8.4.289-12.6.262l-3.016-.027c-.255-.009-.5-.009-.747-.009a36.419,36.419,0,0,0,3.909-2.636,56.043,56.043,0,0,0,8.912-8.866q2.693-3.142,5.459-6.238c.383-.442.775-.885,1.166-1.318q2.228-2.492,4.511-4.938c.164-.181.337-.352.5-.533.747-.786,1.485-1.58,2.233-2.356.365-.379.729-.749,1.112-1.128.155-.171.319-.343.5-.515.519-.542,1.048-1.074,1.576-1.607,1.4-1.408,2.834-2.79,4.274-4.153.392-.361.775-.74,1.166-1.1q1.681-1.557,3.4-3.061c2.278-2.067,4.019-3,4.62-2.492C553.49,671.379,553.2,672.8,551.732,675.414Z" transform="translate(-495.245 -669.322)" fill="#0b1036"/>
    <path id="Path_203" data-name="Path 203" d="M538.14,690.509l.013.006-.016-.012Z" transform="translate(-499.05 -671.381)" fill="#0b1036"/>
  </g>
  <path id="Path_204" data-name="Path 204" d="M582.348,697.406a7.567,7.567,0,0,1-6.589,3.691c-3.128,0-5.007-1.915-5.007-2.716V679.27c0-.8,1.911-2.75,4.743-2.75a7.858,7.858,0,0,1,4.118,1.184h-.066l3.032,5.883h.23l-.131-6.614h-.264l-2.471.7a7.822,7.822,0,0,0-4.447-1.358c-5.732,0-9.916,6.2-9.916,12.5s4.085,12.5,10.179,12.5a7.8,7.8,0,0,0,6.754-3.794Z" transform="translate(-374.372 -607.547)" fill="#0b1036"/>
  <path id="Path_205" data-name="Path 205" d="M599.464,677.252h2.4v11.174H594V677.252h2.4v-.209h-9.389v.209h2.47v23.253h-2.47v.209H596.4v-.209H594v-11.87h7.872v11.87h-2.4v.209h9.389v-.209h-2.47V677.252h2.47v-.209h-9.389Z" transform="translate(-376.273 -607.618)" fill="#0b1036"/>
  <path id="Path_206" data-name="Path 206" d="M514.24,699.92a9.141,9.141,0,0,0,4.578,1.288,6.864,6.864,0,0,0,7.05-6.718,4.3,4.3,0,0,0-1.12-3.064l-10.574-12.219c-.132-.175-.2-.279-.2-.383,0-.348,1.68-2.228,4.447-2.228a7,7,0,0,1,3.293.8h-.066l2.668,5.466h.231l-.1-5.953h-.263l-2.273.313a7.892,7.892,0,0,0-3.492-.835,6.375,6.375,0,0,0-6.391,6.161,4.453,4.453,0,0,0,1.251,3.134l10.278,11.731a1.137,1.137,0,0,1,.364.8c0,.835-2.076,2.785-5.107,2.785a8.827,8.827,0,0,1-4.315-1.219l-2.767-5.918h-.263l-.033,6.788h.231Z" transform="translate(-369.569 -607.555)" fill="#0b1036"/>
  <path id="Path_207" data-name="Path 207" d="M547.369,694.956c-.109.181-.219.362-.319.543l-.009-.009C547.15,695.308,547.26,695.137,547.369,694.956Z" transform="translate(-372.727 -609.359)" fill="#0b1036"/>
  <path id="Path_208" data-name="Path 208" d="M502.892,677.04v.208h.82l2.342,2.194V693.3l-2.709-4.476a24.28,24.28,0,0,1-2.175,5.2l4.156,6.687h.993v-21.27l2.069-2.194h.629v-.208Z" transform="translate(-368.658 -607.618)" fill="#0b1036"/>
  <path id="Path_209" data-name="Path 209" d="M504.765,715.754a31.514,31.514,0,0,1-18.107,11.159c-4.757.993-9.459.036-14.107-1-4.693-1.192-9.25-3.693-14.253-3.918a19.986,19.986,0,0,0-9.5,1.833,45.045,45.045,0,0,0-6.324,3.5c-.8.515-1.6,1.047-2.388,1.571A44.589,44.589,0,0,1,448,723.771c1.495-.812,3.007-1.589,4.474-2.383,6.488-3.458,13.569-5.507,20.085-8.947,5.978-3.395,11.892-7.331,16.668-12.305.018-.027.046-.045.064-.072a39.919,39.919,0,0,0,5.395-7.015c.073-.126.137-.244.191-.361.046-.081.082-.163.128-.235,0-.009.009-.009.009-.018a22.94,22.94,0,0,0,2.087-5.263c.009-.027.009-.054.018-.081.027-.126.055-.244.082-.37.993-4.379.228-8.64-3.281-11.917-.2-.19-.437-.37-.656-.56-.109-.081-.21-.181-.328-.262a15.43,15.43,0,0,0-1.595-1.11c-.173-.09-.355-.162-.529-.244-.219-.108-.437-.217-.656-.307-6.853-2.862-14.362-.623-20.094,3.024-3.937,2.79-8.165,6.518-8.712,11.565-.255,2.365-.082,5.372,2.214,6.726a4.426,4.426,0,0,0,.939.442,7.288,7.288,0,0,0,2.579.235c.082-.009.164-.009.246-.018a15.27,15.27,0,0,0,3.463-.831,18.6,18.6,0,0,0,1.741-.74c.146-.072.283-.144.428-.217s.283-.135.419-.208c.1-.054.191-.117.292-.172.064-.036.137-.081.2-.117.155-.09.3-.181.447-.271a17.381,17.381,0,0,0,3.727-3.16,17.307,17.307,0,0,0,4.3-12.107l-.456.018a18.336,18.336,0,0,1-1.03,7.069,15.03,15.03,0,0,1-2.889,4.812l-4.064-12.224h-1.221l-5.522,17.885a5.318,5.318,0,0,1-3.673-.84,3.772,3.772,0,0,1-.893-.93,6.688,6.688,0,0,1-.747-4.776,11.552,11.552,0,0,1,3.39-6.59c4.9-5.119,11.719-8.766,18.918-9.118a12.909,12.909,0,0,1,5.659.948,8.4,8.4,0,0,1,.993.488,8.659,8.659,0,0,1,2,1.589c2.142,2.248,3.053,5.579,2.57,9.416l-4.256-7.024c-.428-.7-.492-.731-1.021-.731h-6.953v.208h1.549c.4,0,.565.1.829.524l.328.515v20.024l-2.078,2.185h-1.968l-3.469-10.433a17.823,17.823,0,0,1-3.726,3.1l-.021,0,.127.392,2.315,6.934h-2.306v.217h11.355A84.45,84.45,0,0,1,477.754,707c-7.819,5.841-17.287,8.766-25.607,13.786a128.887,128.887,0,0,0-12.348,7.863,3.483,3.483,0,0,0-.93.966.343.343,0,0,0,.009.162.248.248,0,0,0,.182.117.87.87,0,0,0,.374-.135c.046-.018.082-.045.137-.063.447-.28.893-.56,1.349-.84.191-.117.383-.226.583-.343a29.085,29.085,0,0,1,2.816-1.526,25.78,25.78,0,0,1,20.513-.7,45.89,45.89,0,0,0,14.635,2.853,32.731,32.731,0,0,0,20.577-8.044A35.5,35.5,0,0,0,505,715.943Zm-36.88-23.247.064-.208,3.062-9.85h.228l3.007,9.073c-.055.036-.109.063-.164.1-.118.072-.246.144-.365.217-.173.1-.346.2-.529.289a3.566,3.566,0,0,1-.319.172c-.137.072-.283.145-.419.208-.155.081-.319.144-.483.217A16.312,16.312,0,0,1,467.42,694Zm18.244-14.373,7.454,11.989a32.653,32.653,0,0,1-6.233,8.757l-1.221-1.147Z" transform="translate(-363.131 -607.033)" fill="#0b1036"/>
  <path id="Path_210" data-name="Path 210" d="M536.67,701.908V691.485c-1.513,1.634-3.025,3.286-4.511,4.947v5.476h-2.47v.208h9.55v-.208Z" transform="translate(-371.188 -609.022)" fill="#0b1036"/>
  <path id="Path_211" data-name="Path 211" d="M550.7,702.426l-3.307-5.61,0,.008c-.872,1.467-1.762,2.979-2.644,4.482l.677,1.12h-2.06c-.009.009-.009.018-.018.027v.181h8.466v-.208Z" transform="translate(-372.4 -609.54)" fill="#0b1036"/>
  <path id="Path_212" data-name="Path 212" d="M562.747,677.248v-.208h-3.425c-.7,1.2-2.675,4.361-3.592,5.82V700.5h-2.47v.208h9.487V700.5h-2.506V677.248Z" transform="translate(-373.279 -607.618)" fill="#0b1036"/>
  <g id="Group_26" data-name="Group 26" transform="translate(99 29.505)">
    <g id="Group_24" data-name="Group 24" transform="translate(35.924)">
      <path id="Path_213" data-name="Path 213" d="M506.076,635.914v-.506h-1.328l1.4-2.508h-2.107v.506h1.177l-1.4,2.508Z" transform="translate(-503.817 -632.832)" fill="#0b1036"/>
      <path id="Path_214" data-name="Path 214" d="M508.008,635.281h1.16l.254.633h.6l-1.2-3.014h-.44l-1.237,3.014h.608Zm.587-1.564L509,634.8h-.818Z" transform="translate(-504.112 -632.832)" fill="#0b1036"/>
      <path id="Path_215" data-name="Path 215" d="M513.033,635.67a.824.824,0,0,0,.245-.61.789.789,0,0,0-.207-.564.664.664,0,0,0-.375-.19.646.646,0,0,0,.323-.591.8.8,0,0,0-.267-.624,1.089,1.089,0,0,0-.7-.19h-.712v3.014h.966A1.026,1.026,0,0,0,513.033,635.67Zm-1.134-2.291h.163c.229,0,.431.1.431.379a.385.385,0,0,1-.436.394H511.9Zm0,2.057V634.6h.206a.888.888,0,0,1,.384.058.364.364,0,0,1,.211.344.392.392,0,0,1-.177.348.736.736,0,0,1-.384.082Z" transform="translate(-504.484 -632.832)" fill="#0b1036"/>
      <path id="Path_216" data-name="Path 216" d="M515.079,635.914h.56v-1.378l1.014-1.636h-.664l-.617,1.048-.617-1.048h-.664l.988,1.636Z" transform="translate(-504.728 -632.832)" fill="#0b1036"/>
      <path id="Path_217" data-name="Path 217" d="M518.376,635.914h.56v-2.508h.647V632.9h-1.854v.506h.647Z" transform="translate(-505.051 -632.832)" fill="#0b1036"/>
      <path id="Path_218" data-name="Path 218" d="M521.375,634.63l.064-.068,1.022,1.352h.742l-1.281-1.622,1.216-1.392h-.707l-1.056,1.275V632.9h-.561v3.014h.561Z" transform="translate(-505.325 -632.832)" fill="#0b1036"/>
      <path id="Path_219" data-name="Path 219" d="M525.669,635.974a1.575,1.575,0,1,0-1.535-1.573A1.49,1.49,0,0,0,525.669,635.974Zm0-2.616a1.045,1.045,0,1,1-.957,1.044A.964.964,0,0,1,525.669,633.358Z" transform="translate(-505.619 -632.825)" fill="#0b1036"/>
      <path id="Path_220" data-name="Path 220" d="M529.857,635.911l.659-1.911.629,1.911h.423l1.065-3.014h-.6l-.69,2.052-.664-2.078h-.311l-.7,2.078-.643-2.052h-.594l1,3.014Z" transform="translate(-506.001 -632.829)" fill="#0b1036"/>
      <path id="Path_221" data-name="Path 221" d="M535.669,635.407h-1.034v-.823h.991v-.506h-.991v-.674h1.034V632.9h-1.595v3.014h1.595Z" transform="translate(-506.501 -632.832)" fill="#0b1036"/>
    </g>
    <g id="Group_25" data-name="Group 25" transform="translate(0 0.068)">
      <path id="Path_222" data-name="Path 222" d="M465.258,635.282h1.159l.254.632h.6l-1.2-3.013h-.439l-1.238,3.013H465Zm.586-1.565.409,1.085h-.818Z" transform="translate(-464.396 -632.9)" fill="#0b1036"/>
      <path id="Path_223" data-name="Path 223" d="M468.887,634.8h.363a.955.955,0,0,0,.727-.266,1,1,0,0,0,.238-.674.983.983,0,0,0-.293-.728,1,1,0,0,0-.758-.23h-.837v3.013h.56Zm0-1.391h.194a.654.654,0,0,1,.4.094.427.427,0,0,1,.16.344.457.457,0,0,1-.156.353.554.554,0,0,1-.365.094h-.229Z" transform="translate(-464.745 -632.9)" fill="#0b1036"/>
      <path id="Path_224" data-name="Path 224" d="M471.483,635.282h1.16l.254.632h.6l-1.2-3.013h-.44l-1.237,3.013h.608Zm.587-1.565.409,1.085h-.819Z" transform="translate(-464.948 -632.9)" fill="#0b1036"/>
      <path id="Path_225" data-name="Path 225" d="M475.113,634.7h.068l.768,1.211h.7l-.9-1.269a.762.762,0,0,0,.314-.132.834.834,0,0,0,.336-.709.878.878,0,0,0-.285-.678,1.022,1.022,0,0,0-.732-.226h-.833v3.013h.561Zm0-1.324h.168c.1,0,.543,0,.543.452s-.444.456-.551.456h-.159Z" transform="translate(-465.297 -632.9)" fill="#0b1036"/>
      <path id="Path_226" data-name="Path 226" d="M477.986,635.914h.56v-2.507h.647V632.9h-1.854v.506h.647Z" transform="translate(-465.544 -632.9)" fill="#0b1036"/>
      <path id="Path_227" data-name="Path 227" d="M480.49,635.282h1.159l.255.632h.6l-1.2-3.013h-.44l-1.237,3.013h.608Zm.587-1.565.409,1.085h-.819Z" transform="translate(-465.747 -632.9)" fill="#0b1036"/>
      <path id="Path_228" data-name="Path 228" d="M484.261,634.057l.737,1.857h.19l.772-1.857.258,1.857h.57L486.3,632.9h-.4l-.8,1.916-.764-1.916h-.4l-.535,3.013h.57Z" transform="translate(-466.082 -632.9)" fill="#0b1036"/>
      <path id="Path_229" data-name="Path 229" d="M489.673,635.408h-1.034v-.823h.991v-.506h-.991v-.673h1.034V632.9h-1.595v3.013h1.595Z" transform="translate(-466.497 -632.9)" fill="#0b1036"/>
      <path id="Path_230" data-name="Path 230" d="M491.387,633.9l1.75,2.015h.388V632.9h-.56v2.01l-1.751-2.01h-.388v3.013h.561Z" transform="translate(-466.741 -632.9)" fill="#0b1036"/>
      <path id="Path_231" data-name="Path 231" d="M495.225,635.914h.56v-2.507h.647V632.9h-1.854v.506h.647Z" transform="translate(-467.073 -632.9)" fill="#0b1036"/>
      <path id="Path_232" data-name="Path 232" d="M498.167,635.914h.56v-1.378l1.014-1.635h-.664l-.617,1.048-.617-1.048h-.664l.988,1.635Z" transform="translate(-467.304 -632.9)" fill="#0b1036"/>
    </g>
  </g>
  <g id="Group_27" data-name="Group 27" transform="translate(115.168)">
    <path id="Path_233" data-name="Path 233" d="M511.471,603.91h0Z" transform="translate(-484.74 -600.51)" fill="none"/>
    <path id="Path_234" data-name="Path 234" d="M484.094,605.774a.649.649,0,0,0-.656.641v.551a.652.652,0,0,0,1.3,0v-.551A.647.647,0,0,0,484.094,605.774Zm.428,1.192a.426.426,0,0,1-.428.424h-.027a.1.1,0,0,1-.055-.018h-.036c-.009-.009-.027-.009-.046-.018-.055-.018-.082-.063-.128-.1-.018-.018-.046-.027-.055-.045a.394.394,0,0,1-.082-.244v-.551a.423.423,0,0,1,.128-.3.4.4,0,0,1,.3-.126.426.426,0,0,1,.428.424Z" transform="translate(-482.253 -600.691)" fill="#0b1036"/>
    <path id="Path_235" data-name="Path 235" d="M494.353,607.612a.652.652,0,0,0,.653-.647v-.546a.653.653,0,0,0-1.306,0v.546A.651.651,0,0,0,494.353,607.612Zm-.428-1.193a.428.428,0,0,1,.857,0v.546a.428.428,0,0,1-.857,0Z" transform="translate(-483.164 -600.691)" fill="#0b1036"/>
    <path id="Path_236" data-name="Path 236" d="M507.738,607.612a.651.651,0,0,0,.653-.647v-.546a.653.653,0,0,0-1.306,0v.546A.651.651,0,0,0,507.738,607.612Zm-.427-1.193a.428.428,0,0,1,.856,0v.546a.428.428,0,0,1-.856,0Z" transform="translate(-484.351 -600.691)" fill="#0b1036"/>
    <path id="Path_237" data-name="Path 237" d="M517.109,607.612a.65.65,0,0,0,.653-.646v-.548a.653.653,0,0,0-1.306,0v.548A.65.65,0,0,0,517.109,607.612Zm-.429-1.193a.414.414,0,0,1,.126-.3h0a.4.4,0,0,1,.075-.05.4.4,0,0,1,.064-.042.435.435,0,0,1,.164-.031.427.427,0,0,1,.428.424v.548a.427.427,0,0,1-.428.424l-.025,0a.308.308,0,0,1-.059-.013l-.03-.006a.208.208,0,0,1-.052-.013.424.424,0,0,1-.263-.392Z" transform="translate(-485.182 -600.691)" fill="#0b1036"/>
    <path id="Path_238" data-name="Path 238" d="M516.915,606.1a.412.412,0,0,0-.075.05h0A.419.419,0,0,1,516.915,606.1Z" transform="translate(-485.216 -600.723)" fill="#0b1036"/>
    <path id="Path_239" data-name="Path 239" d="M488.811,615.415l-2.263,1.606h4.525Zm0,.274,1.565,1.11h-3.129Z" transform="translate(-482.529 -601.628)" fill="#0b1036"/>
    <path id="Path_240" data-name="Path 240" d="M514.582,617.021l-2.262-1.606-2.263,1.606Zm-.7-.222h-3.128l1.565-1.11Z" transform="translate(-484.615 -601.628)" fill="#0b1036"/>
    <path id="Path_241" data-name="Path 241" d="M492.342,611.644H490.6v2.651h1.741Zm-.985,2.429h-.531v-2.206h.531Zm.76,0h-.535v-2.206h.535Z" transform="translate(-482.889 -601.262)" fill="#0b1036"/>
    <path id="Path_242" data-name="Path 242" d="M489.818,611.644h-1.742v2.651h1.742Zm-.985,2.429H488.3v-2.206h.531Zm.76,0h-.535v-2.206h.535Z" transform="translate(-482.665 -601.262)" fill="#0b1036"/>
    <path id="Path_243" data-name="Path 243" d="M487.292,611.644H485.55v2.651h1.742Zm-.981,2.429h-.536v-2.206h.536Zm.755,0h-.531v-2.206h.531Z" transform="translate(-482.441 -601.262)" fill="#0b1036"/>
    <path id="Path_244" data-name="Path 244" d="M490.6,620.849h1.741V618.2H490.6Zm.981-2.429h.535v2.207h-.535Zm-.756,0h.531v2.207h-.531Z" transform="translate(-482.889 -601.899)" fill="#0b1036"/>
    <path id="Path_245" data-name="Path 245" d="M488.076,620.849h1.742V618.2h-1.742Zm.982-2.429h.535v2.207h-.535Zm-.756,0h.531v2.207H488.3Z" transform="translate(-482.665 -601.899)" fill="#0b1036"/>
    <path id="Path_246" data-name="Path 246" d="M487.292,618.2H485.55v2.651h1.742Zm-.981,2.429h-.536V618.42h.536Zm.755,0h-.531V618.42h.531Z" transform="translate(-482.441 -601.899)" fill="#0b1036"/>
    <path id="Path_247" data-name="Path 247" d="M514.109,620.849h1.742V618.2h-1.742Zm.981-2.429h.536v2.207h-.536Zm-.756,0h.531v2.207h-.531Z" transform="translate(-484.974 -601.899)" fill="#0b1036"/>
    <path id="Path_248" data-name="Path 248" d="M511.585,620.849h1.741V618.2h-1.741Zm.981-2.429h.536v2.207h-.536Zm-.756,0h.531v2.207h-.531Z" transform="translate(-484.75 -601.899)" fill="#0b1036"/>
    <path id="Path_249" data-name="Path 249" d="M509.059,620.849H510.8V618.2h-1.742Zm.985-2.429h.531v2.207h-.531Zm-.76,0h.535v2.207h-.535Z" transform="translate(-484.526 -601.899)" fill="#0b1036"/>
    <path id="Path_250" data-name="Path 250" d="M498.378,620.849h1.741V618.2h-1.741Zm.981-2.429h.535v2.207h-.535Zm-.756,0h.531v2.207H498.6Z" transform="translate(-483.579 -601.899)" fill="#0b1036"/>
    <path id="Path_251" data-name="Path 251" d="M495.366,620.849h1.746V618.2h-1.746Zm.986-2.429h.535v2.207h-.535Zm-.761,0h.536v2.207h-.536Z" transform="translate(-483.311 -601.899)" fill="#0b1036"/>
    <path id="Path_252" data-name="Path 252" d="M514.544,608.784v-.271h.428l.009-.876-1.777-.009-.027-.045a10.781,10.781,0,0,1-1.668-6.13l-.009-.181-.365-.2v-.93h-2.023v.939l-.328.181-.155,1.562h-1.7v-1.074H491.971v1.074h-2l-.018-.072a8.278,8.278,0,0,1-.118-1.3l-.009-.172-.319-.2v-.939h-2l.009.93-.365.208.018.2a11.075,11.075,0,0,1-1.7,6.1l-.027.036h-2.47v.894h.346v.271h-1.176l1.176.993v13.542h31.23V609.786l.027-.027,1.23-.975ZM509,604.73c.009-.063.018-.108.027-.153.018-.09.036-.19.055-.28l.018-.117c.009-.09.027-.172.036-.244.018-.126.036-.235.046-.334v-.054l.036-.28.164-1.661h.064l.292-.172v-.587h.182v.009h.392v-.009h.182v.6l.383.2v.054c.009.4.036.74.064,1.056a12.793,12.793,0,0,0,.492,2.564c.046.163.1.325.155.478a9.263,9.263,0,0,0,.556,1.309c.018.036.046.081.064.126l.009.018c.055.09.1.181.146.253l.027.036a.493.493,0,0,0,.046.072.783.783,0,0,0,.055.09l.109.163.027.045.091.117h-1.495v-1.336a1.012,1.012,0,0,0-2.023,0v1.336h-1.567l.128-.154a1.989,1.989,0,0,0,.173-.235c.018-.018.027-.027.027-.036.055-.081.1-.163.155-.235.027-.054.064-.117.091-.171l.046-.1a1.491,1.491,0,0,0,.137-.3.114.114,0,0,1,.018-.027c.036-.108.073-.19.109-.289.046-.117.091-.235.128-.361s.082-.262.118-.4a.62.62,0,0,0,.027-.072.261.261,0,0,1,.018-.081c.046-.181.091-.361.128-.533.018-.072.027-.145.046-.217Zm.428,2,.009-.1a.777.777,0,0,1,1.549,0l.009.1Zm1.567.226v1.074h-.674v-1.074Zm-.893,0v1.074h-.674v-1.074ZM492.6,602.374h13.7v.849H492.6Zm-2.752,1.165,19.11.018c-.118,1.029-.529,3.53-1.64,4.451l-.018.018H491.388l-.027-.018c-.957-.641-1.513-3.34-1.7-4.469Zm-3.837,4.352a12.088,12.088,0,0,0,.72-1.327c.055-.117.109-.244.164-.361l.009-.027c.046-.108.091-.217.128-.325l.018-.054c.046-.117.091-.235.128-.352l.009-.018c.046-.117.082-.235.118-.361.073-.253.137-.487.191-.686.046-.226.091-.442.128-.65a2.449,2.449,0,0,0,.046-.253l.018-.072c.009-.081.027-.172.036-.253l.009-.081a1.337,1.337,0,0,0,.018-.19l.009-.027a1.743,1.743,0,0,1,.018-.217v-.054c.009-.063.009-.117.018-.172v-.054c0-.054.009-.108.009-.153v-.19a1.08,1.08,0,0,0,.009-.163v-.217l.328-.2v-.677h.738v.677l.328.208v.108a.133.133,0,0,1,.009.063v.072l.009.054a6.377,6.377,0,0,0,.073.677l.009.126c.073.551.529,3.855,1.586,5.137l.128.145h-1.595v-1.336a1.007,1.007,0,0,0-2.014,0v1.336H485.92Zm1.622-1.165.009-.1a.78.78,0,0,1,.775-.713.789.789,0,0,1,.784.713l.009.1Zm1.567.226v1.074h-.665v-1.074Zm-.893,0v1.074h-.674v-1.074Zm-4.365,1.291,28.824.009.091-.009h.355v.009h.693v.533H483.943Zm0,.758h29.963v.524H483.943Zm29.963.74v10.283h-8.083V609.741Zm-29.963,0h9.031v10.283h-9.031Zm14.28,12.946h-14.28v-2.04h14.28Zm1.057,0h-.829v-2.04h.829Zm6.315,0h-6.087v-.515h6.087Zm0-.731h-6.087v-.551h6.087Zm0-.776h-6.087v-.533h6.087Zm-2.224-2.311v-2.2h.638v2.2Zm.638.226v.93h-.638v-.93Zm-3.226-2.654v-.9h3.226v.9Zm2.36.226v3.359h-1.495v-3.359Zm-1.713,0v2.2h-.647v-2.2Zm0,2.429v.93h-.647v-.93Zm4.165.93h-1.358v-4.487h.492v-.226h-4.684v.226h.519v4.487h-7.372v-6.843h12.4Zm-11.172-7.069v-2.2h.529v2.2Zm.756,0v-2.2h.538v2.2Zm1.987,0v-2.2h.529v2.2Zm.756,0v-2.2h.529v2.2Zm2.451,0v-2.2h.529v2.2Zm.756,0v-2.2h.529v2.2Zm1.977,0v-2.2h.538v2.2Zm.766,0v-2.2h.538v2.2Zm1.722,0h-.966v-2.429h-1.741v2.429h-1v-2.429h-1.741v2.429h-1.467v-2.429h-1.741v2.429h-1v-2.429h-1.741v2.429h-1v-3.214h12.4Zm1.075,9.732h-.847v-2.04h.847Zm7.245,0H506.9v-2.04h7.017Z" transform="translate(-482.138 -600.144)" fill="#0b1036"/>
    <path id="Path_253" data-name="Path 253" d="M489.874,601.782l-.232-.231.017.091.216.141Z" transform="translate(-482.804 -600.281)" fill="#0b1036"/>
    <path id="Path_254" data-name="Path 254" d="M516.194,609.114v.009h-.447l.091-.009Z" transform="translate(-485.119 -601.016)" fill="#0b1036"/>
    <path id="Path_255" data-name="Path 255" d="M510.8,611.644h-1.742v2.651H510.8Zm-.982,2.429h-.535v-2.206h.535Zm.756,0h-.531v-2.206h.531Z" transform="translate(-484.526 -601.262)" fill="#0b1036"/>
    <path id="Path_256" data-name="Path 256" d="M513.326,611.644h-1.741v2.651h1.741Zm-.986,2.429h-.531v-2.206h.531Zm.761,0h-.536v-2.206h.536Z" transform="translate(-484.75 -601.262)" fill="#0b1036"/>
    <path id="Path_257" data-name="Path 257" d="M514.109,614.295h1.742v-2.651h-1.742Zm.981-2.429h.536v2.206h-.536Zm-.756,0h.531v2.206h-.531Z" transform="translate(-484.974 -601.262)" fill="#0b1036"/>
  </g>
  <rect id="Rectangle_4" data-name="Rectangle 4" width="65.091" height="0.632" transform="translate(99 22.543)" fill="#0b1036"/>
</svg>
